<svg width="15" height="15" viewBox="0 0 15 15" fill="none" xmlns="http://www.w3.org/2000/svg">
<path d="M2.10576 14.2499C1.73172 14.2499 1.41225 14.1175 1.14735 13.8526C0.882451 13.5877 0.75 13.2682 0.75 12.8942V4.49563C0.529808 4.38217 0.34976 4.22088 0.209856 4.01174C0.069952 3.80261 0 3.5615 0 3.28843V1.35576C0 0.981723 0.132451 0.662254 0.397353 0.397353C0.662254 0.132451 0.981723 0 1.35576 0H12.8942C13.2682 0 13.5877 0.132451 13.8526 0.397353C14.1175 0.662254 14.2499 0.981723 14.2499 1.35576V3.28843C14.2499 3.5615 14.18 3.80261 14.0401 4.01174C13.9002 4.22088 13.7201 4.38217 13.4999 4.49563V12.8942C13.4999 13.2682 13.3675 13.5877 13.1026 13.8526C12.8377 14.1175 12.5182 14.2499 12.1442 14.2499H2.10576ZM1.87497 4.64419V12.8581C1.87497 12.9351 1.90262 12.9988 1.95791 13.0492C2.0132 13.0997 2.08172 13.125 2.16346 13.125H12.1442C12.2115 13.125 12.2668 13.1033 12.3101 13.0601C12.3533 13.0168 12.375 12.9615 12.375 12.8942V4.64419H1.87497ZM1.35576 3.51921H12.8942C12.9615 3.51921 13.0168 3.49758 13.0601 3.45431C13.1033 3.41103 13.125 3.35574 13.125 3.28843V1.35576C13.125 1.28845 13.1033 1.23315 13.0601 1.18988C13.0168 1.14661 12.9615 1.12497 12.8942 1.12497H1.35576C1.28845 1.12497 1.23315 1.14661 1.18988 1.18988C1.14661 1.23315 1.12497 1.28845 1.12497 1.35576V3.28843C1.12497 3.35574 1.14661 3.41103 1.18988 3.45431C1.23315 3.49758 1.28845 3.51921 1.35576 3.51921ZM5.01921 8.19946H9.23073V7.12497H5.01921V8.19946Z" fill="#0F0F0E"/>
</svg>
