<svg width="15" height="13" viewBox="0 0 15 13" fill="none" xmlns="http://www.w3.org/2000/svg">
<path d="M6.66346 12.7499V11.625H12.1442C12.2067 11.625 12.2608 11.6057 12.3065 11.5673C12.3521 11.5288 12.375 11.4783 12.375 11.4158V6.17016C12.375 4.7365 11.862 3.52953 10.836 2.54925C9.81007 1.56896 8.57305 1.07882 7.12497 1.07882C5.6769 1.07882 4.43988 1.56896 3.41392 2.54925C2.38795 3.52953 1.87497 4.7365 1.87497 6.17016V10.5865H1.31249C0.952875 10.5865 0.644224 10.4613 0.386535 10.2108C0.128845 9.9603 0 9.65525 0 9.29564V7.83891C0 7.59564 0.069231 7.37281 0.207693 7.17041C0.346155 6.96801 0.526924 6.80527 0.75 6.68219L0.784614 5.7245C0.846149 4.90816 1.05817 4.15191 1.42066 3.45576C1.78316 2.75961 2.24806 2.1536 2.81537 1.63774C3.38267 1.12187 4.03748 0.71995 4.77979 0.43197C5.52209 0.14399 6.30382 0 7.12497 0C7.94612 0 8.72593 0.14399 9.46439 0.43197C10.2028 0.71995 10.8577 1.11995 11.4288 1.63197C12 2.14398 12.4649 2.74807 12.8235 3.44422C13.1822 4.14037 13.3961 4.89662 13.4653 5.71296L13.4999 6.6519C13.7182 6.75479 13.8978 6.9019 14.0386 7.09325C14.1795 7.28459 14.2499 7.49805 14.2499 7.73362V9.40814C14.2499 9.64372 14.1795 9.85718 14.0386 10.0485C13.8978 10.2399 13.7182 10.387 13.4999 10.4899V11.4158C13.4999 11.7851 13.3675 12.0997 13.1026 12.3598C12.8377 12.6199 12.5182 12.7499 12.1442 12.7499H6.66346ZM5.01921 7.70188C4.83556 7.70188 4.67907 7.63962 4.54975 7.51511C4.42042 7.39059 4.35576 7.2365 4.35576 7.05285C4.35576 6.8692 4.42042 6.71391 4.54975 6.58699C4.67907 6.46007 4.83556 6.39661 5.01921 6.39661C5.20287 6.39661 5.35935 6.46007 5.48868 6.58699C5.61801 6.71391 5.68267 6.8692 5.68267 7.05285C5.68267 7.2365 5.61801 7.39059 5.48868 7.51511C5.35935 7.63962 5.20287 7.70188 5.01921 7.70188ZM9.23073 7.70188C9.04708 7.70188 8.89059 7.63962 8.76126 7.51511C8.63194 7.39059 8.56728 7.2365 8.56728 7.05285C8.56728 6.8692 8.63194 6.71391 8.76126 6.58699C8.89059 6.46007 9.04708 6.39661 9.23073 6.39661C9.41438 6.39661 9.57087 6.46007 9.7002 6.58699C9.82952 6.71391 9.89419 6.8692 9.89419 7.05285C9.89419 7.2365 9.82952 7.39059 9.7002 7.51511C9.57087 7.63962 9.41438 7.70188 9.23073 7.70188ZM2.90336 6.52496C2.82547 5.30093 3.20624 4.25358 4.04566 3.38291C4.88508 2.51224 5.92402 2.07691 7.16247 2.07691C8.20285 2.07691 9.12088 2.39878 9.91655 3.04253C10.7122 3.68627 11.1951 4.51968 11.3653 5.54275C10.3 5.53025 9.31559 5.25045 8.41223 4.70334C7.50887 4.15622 6.81536 3.40623 6.33171 2.45335C6.14132 3.38604 5.74229 4.21055 5.1346 4.92689C4.52691 5.64323 3.78316 6.17592 2.90336 6.52496Z" fill="#6B6B67"/>
</svg>
