<svg width="15" height="14" viewBox="0 0 15 14" fill="none" xmlns="http://www.w3.org/2000/svg">
<path d="M5.0077 13.8462L3.75577 11.7346L1.37308 11.2212L1.60673 8.76347L0 6.92308L1.60673 5.0827L1.37308 2.625L3.75577 2.11154L5.0077 0L7.24039 0.94327L9.47309 0L10.725 2.11154L13.1077 2.625L12.874 5.0827L14.4808 6.92308L12.874 8.76347L13.1077 11.2212L10.725 11.7346L9.47309 13.8462L7.24039 12.9029L5.0077 13.8462ZM5.32789 12.8856L7.24039 12.0894L9.16154 12.8856L10.2404 11.0856L12.3029 10.6269L12.1154 8.49808L13.5029 6.92308L12.1154 5.33943L12.3029 3.21058L10.2404 2.76058L9.15289 0.960583L7.24039 1.75674L5.31924 0.960583L4.24039 2.76058L2.17789 3.21058L2.36539 5.33943L0.977891 6.92308L2.36539 8.49808L2.17789 10.6356L4.24039 11.0856L5.32789 12.8856ZM6.45289 9.06635L10.1712 5.34808L9.64039 4.80866L6.45289 7.99616L4.84039 6.39231L4.30962 6.92308L6.45289 9.06635Z" fill="#6B6B67"/>
</svg>
