<svg width="16" height="11" viewBox="0 0 16 11" fill="none" xmlns="http://www.w3.org/2000/svg">
<path d="M2.99661 10.5865C2.4508 10.5865 1.98798 10.3958 1.60818 10.0144C1.22837 9.63302 1.03846 9.16988 1.03846 8.62501H0V1.21154C0 0.866347 0.115625 0.578126 0.346876 0.346875C0.578126 0.115625 0.866347 0 1.21154 0H11.1346V2.71154H12.8654L15.4615 6.20192V8.62501H14.25C14.25 9.16988 14.059 9.63302 13.6769 10.0144C13.2948 10.3958 12.8309 10.5865 12.2851 10.5865C11.7393 10.5865 11.2764 10.3958 10.8966 10.0144C10.5168 9.63302 10.3269 9.16988 10.3269 8.62501H4.96154C4.96154 9.17308 4.77051 9.63703 4.38844 10.0168C4.00637 10.3966 3.54243 10.5865 2.99661 10.5865ZM3 9.83654C3.3375 9.83654 3.6238 9.719 3.8589 9.4839C4.09399 9.2488 4.21154 8.96251 4.21154 8.62501C4.21154 8.28751 4.09399 8.00121 3.8589 7.76611C3.6238 7.53102 3.3375 7.41347 3 7.41347C2.66251 7.41347 2.37621 7.53102 2.14111 7.76611C1.90602 8.00121 1.78847 8.28751 1.78847 8.62501C1.78847 8.96251 1.90602 9.2488 2.14111 9.4839C2.37621 9.719 2.66251 9.83654 3 9.83654ZM0.750005 7.875H1.23462C1.34135 7.54423 1.55866 7.25962 1.88654 7.02116C2.21443 6.7827 2.58558 6.66347 3 6.66347C3.3952 6.66347 3.76154 6.78029 4.09904 7.01395C4.43654 7.2476 4.65866 7.53462 4.76539 7.875H10.3846V0.750005H1.21154C1.09616 0.750005 0.990388 0.798081 0.894234 0.894234C0.798081 0.990388 0.750005 1.09616 0.750005 1.21154V7.875ZM12.2885 9.83654C12.626 9.83654 12.9123 9.719 13.1474 9.4839C13.3825 9.2488 13.5 8.96251 13.5 8.62501C13.5 8.28751 13.3825 8.00121 13.1474 7.76611C12.9123 7.53102 12.626 7.41347 12.2885 7.41347C11.951 7.41347 11.6647 7.53102 11.4296 7.76611C11.1945 8.00121 11.0769 8.28751 11.0769 8.62501C11.0769 8.96251 11.1945 9.2488 11.4296 9.4839C11.6647 9.719 11.951 9.83654 12.2885 9.83654ZM11.1346 6.375H14.6683L12.4615 3.46154H11.1346V6.375Z" fill="#6B6B67"/>
</svg>
