<svg width="16" height="18" viewBox="0 0 16 18" fill="none" xmlns="http://www.w3.org/2000/svg">
<path d="M13.6109 18C12.9472 18 12.3846 17.7682 11.9231 17.3045C11.4615 16.8408 11.2308 16.2778 11.2308 15.6154C11.2308 15.5154 11.275 15.2628 11.3635 14.8577L4.16539 10.5846C3.95001 10.8346 3.68567 11.0305 3.37238 11.1721C3.0591 11.3138 2.72343 11.3846 2.36539 11.3846C1.70834 11.3846 1.14984 11.1507 0.689905 10.6827C0.229968 10.2148 0 9.65385 0 9.00001C0 8.34616 0.229968 7.78526 0.689905 7.31731C1.14984 6.84936 1.70834 6.61539 2.36539 6.61539C2.72343 6.61539 3.0591 6.68622 3.37238 6.82789C3.68567 6.96955 3.95001 7.16539 4.16539 7.41539L11.3635 3.16154C11.3173 3.03205 11.2837 2.90353 11.2625 2.77596C11.2414 2.6484 11.2308 2.51795 11.2308 2.38462C11.2308 1.72222 11.4631 1.15919 11.9276 0.695514C12.3922 0.231838 12.9563 0 13.6199 0C14.2836 0 14.8462 0.232278 15.3077 0.696834C15.7692 1.16139 16 1.72549 16 2.38914C16 3.05279 15.7682 3.61539 15.3045 4.07693C14.8408 4.53847 14.2778 4.76924 13.6154 4.76924C13.2539 4.76924 12.9205 4.6952 12.6154 4.54712C12.3103 4.39905 12.05 4.20001 11.8346 3.95001L4.63655 8.22308C4.6827 8.35257 4.71635 8.4811 4.73751 8.60866C4.75866 8.73622 4.76924 8.86667 4.76924 9.00001C4.76924 9.13334 4.75866 9.26379 4.73751 9.39135C4.71635 9.51892 4.6827 9.64744 4.63655 9.77693L11.8346 14.05C12.05 13.8 12.3103 13.601 12.6154 13.4529C12.9205 13.3048 13.2539 13.2308 13.6154 13.2308C14.2778 13.2308 14.8408 13.4631 15.3045 13.9276C15.7682 14.3922 16 14.9563 16 15.6199C16 16.2836 15.7677 16.8462 15.3032 17.3077C14.8386 17.7692 14.2745 18 13.6109 18ZM13.6221 17C14.0164 17 14.3446 16.8667 14.6067 16.6C14.8689 16.3333 15 16.0029 15 15.6086C15 15.2144 14.868 14.8862 14.6039 14.624C14.3398 14.3619 14.0125 14.2308 13.6221 14.2308C13.2317 14.2308 12.9023 14.3628 12.6337 14.6269C12.3651 14.891 12.2308 15.2183 12.2308 15.6086C12.2308 15.999 12.3641 16.3285 12.6308 16.5971C12.8975 16.8657 13.2279 17 13.6221 17ZM2.36539 10.3846C2.76314 10.3846 3.09656 10.2503 3.36563 9.98174C3.6347 9.71315 3.76923 9.3859 3.76923 9.00001C3.76923 8.61411 3.6347 8.28687 3.36563 8.01828C3.09656 7.74969 2.76314 7.61539 2.36539 7.61539C1.97853 7.61539 1.65425 7.74969 1.39255 8.01828C1.13086 8.28687 1.00001 8.61411 1.00001 9.00001C1.00001 9.3859 1.13086 9.71315 1.39255 9.98174C1.65425 10.2503 1.97853 10.3846 2.36539 10.3846ZM13.6154 3.76923C14.0013 3.76923 14.3285 3.63654 14.5971 3.37116C14.8657 3.10577 15 2.77693 15 2.38462C15 1.99231 14.8689 1.66347 14.6067 1.39808C14.3446 1.1327 14.0164 1.00001 13.6221 1.00001C13.2279 1.00001 12.8975 1.13205 12.6308 1.39614C12.3641 1.66023 12.2308 1.98748 12.2308 2.37787C12.2308 2.76827 12.3651 3.09776 12.6337 3.36635C12.9023 3.63494 13.2295 3.76923 13.6154 3.76923Z" fill="#6B6B67"/>
</svg>
