<svg width="14" height="14" viewBox="0 0 14 14" fill="none" xmlns="http://www.w3.org/2000/svg">
<path d="M1.34616 13.3333C0.962608 13.3333 0.642362 13.2049 0.385417 12.9479C0.128472 12.691 0 12.3707 0 11.9872V1.34616C0 0.962608 0.128472 0.642362 0.385417 0.385417C0.642362 0.128472 0.962608 0 1.34616 0H6.6827V0.833338H1.34616C1.21795 0.833338 1.10043 0.886757 0.993594 0.993594C0.886757 1.10043 0.833338 1.21795 0.833338 1.34616V11.9872C0.833338 12.1154 0.886757 12.2329 0.993594 12.3397C1.10043 12.4466 1.21795 12.5 1.34616 12.5H6.6827V13.3333H1.34616ZM10.3846 9.6154L9.79968 9.01603L11.7324 7.08334H4.32693V6.25H11.7324L9.79968 4.31731L10.3846 3.71795L13.3333 6.66667L10.3846 9.6154Z" fill="#A8A29E"/>
</svg>
