<svg width="16" height="12" viewBox="0 0 16 12" fill="none" xmlns="http://www.w3.org/2000/svg">
<path d="M9.00642 5.9936C8.53633 5.9936 8.14103 5.83334 7.82052 5.51283C7.50001 5.19231 7.33975 4.79701 7.33975 4.32693C7.33975 3.85684 7.50001 3.46154 7.82052 3.14103C8.14103 2.82051 8.53633 2.66026 9.00642 2.66026C9.47651 2.66026 9.87181 2.82051 10.1923 3.14103C10.5128 3.46154 10.6731 3.85684 10.6731 4.32693C10.6731 4.79701 10.5128 5.19231 10.1923 5.51283C9.87181 5.83334 9.47651 5.9936 9.00642 5.9936ZM3.84616 8.65385C3.47597 8.65385 3.15906 8.52204 2.89544 8.25842C2.63182 7.9948 2.50001 7.67789 2.50001 7.3077V1.34616C2.50001 0.975963 2.63182 0.659056 2.89544 0.395434C3.15906 0.131811 3.47597 0 3.84616 0H14.1667C14.5369 0 14.8538 0.131811 15.1174 0.395434C15.381 0.659056 15.5128 0.975963 15.5128 1.34616V7.3077C15.5128 7.67789 15.381 7.9948 15.1174 8.25842C14.8538 8.52204 14.5369 8.65385 14.1667 8.65385H3.84616ZM4.6795 7.82052H13.3333C13.3333 7.44765 13.4652 7.13008 13.7288 6.86779C13.9924 6.6055 14.3093 6.47436 14.6795 6.47436V2.17949C14.3066 2.17949 13.9891 2.04768 13.7268 1.78406C13.4645 1.52044 13.3333 1.20353 13.3333 0.833338H4.6795C4.6795 1.2062 4.54769 1.52378 4.28407 1.78606C4.02044 2.04835 3.70354 2.17949 3.33334 2.17949V6.47436C3.70621 6.47436 4.02378 6.60617 4.28607 6.86979C4.54836 7.13342 4.6795 7.45032 4.6795 7.82052ZM13.0449 11.1539H1.34616C0.975963 11.1539 0.659055 11.022 0.395433 10.7584C0.131811 10.4948 0 10.1779 0 9.8077V2.46795H0.833338V9.8077C0.833338 9.93591 0.886757 10.0534 0.993594 10.1603C1.10043 10.2671 1.21795 10.3205 1.34616 10.3205H13.0449V11.1539ZM3.84616 7.82052H3.33334C3.33334 7.82052 3.33334 7.76977 3.33334 7.66827C3.33334 7.56678 3.33334 7.44659 3.33334 7.3077V1.34616C3.33334 1.20727 3.33334 1.08708 3.33334 0.98558C3.33334 0.884086 3.33334 0.833338 3.33334 0.833338H3.84616C3.70727 0.833338 3.58708 0.884086 3.48559 0.98558C3.38409 1.08708 3.33334 1.20727 3.33334 1.34616V7.3077C3.33334 7.44659 3.38409 7.56678 3.48559 7.66827C3.58708 7.76977 3.70727 7.82052 3.84616 7.82052Z" fill="#D6D3D1"/>
</svg>
