<svg width="9" height="15" viewBox="0 0 9 15" fill="none" xmlns="http://www.w3.org/2000/svg">
<path d="M0.11218 14.1026L0 13.2308L2.15064 7.29807C2.26282 7.39636 2.37901 7.47409 2.4992 7.53125C2.6194 7.58841 2.74359 7.63568 2.8718 7.67308L0.772441 13.484L0.11218 14.1026ZM8.22116 14.1026L7.5609 13.484L5.46154 7.67308C5.58974 7.63568 5.71394 7.58841 5.83414 7.53125C5.95433 7.47409 6.07052 7.39636 6.1827 7.29807L8.33334 13.2308L8.22116 14.1026ZM4.16667 6.25C3.58975 6.25 3.09829 6.04701 2.69231 5.64103C2.28632 5.23504 2.08333 4.74359 2.08333 4.16667C2.08333 3.625 2.25294 3.17174 2.59215 2.80689C2.93136 2.44204 3.31731 2.22436 3.75 2.15384V0H4.58334V2.15384C5.01603 2.22436 5.40198 2.44204 5.74119 2.80689C6.0804 3.17174 6.25001 3.625 6.25001 4.16667C6.25001 4.74359 6.04701 5.23504 5.64103 5.64103C5.23505 6.04701 4.74359 6.25 4.16667 6.25ZM4.16667 5.41666C4.50962 5.41666 4.80369 5.29407 5.04888 5.04888C5.29407 4.80368 5.41667 4.50961 5.41667 4.16667C5.41667 3.82372 5.29407 3.52965 5.04888 3.28446C4.80369 3.03927 4.50962 2.91667 4.16667 2.91667C3.82372 2.91667 3.52965 3.03927 3.28446 3.28446C3.03927 3.52965 2.91667 3.82372 2.91667 4.16667C2.91667 4.50961 3.03927 4.80368 3.28446 5.04888C3.52965 5.29407 3.82372 5.41666 4.16667 5.41666Z" fill="#A8A29E"/>
</svg>
