<svg width="14" height="14" viewBox="0 0 14 14" fill="none" xmlns="http://www.w3.org/2000/svg">
<path d="M3.10898 10.4167H3.94231V6.66667H3.10898V10.4167ZM9.39103 10.4167H10.2244V2.50001H9.39103V10.4167ZM6.25 10.4167H7.08334V8.33334H6.25V10.4167ZM6.25 6.66667H7.08334V5.00001H6.25V6.66667ZM1.34616 13.3333C0.962608 13.3333 0.642362 13.2049 0.385417 12.9479C0.128472 12.691 0 12.3707 0 11.9872V1.34616C0 0.962608 0.128472 0.642362 0.385417 0.385417C0.642362 0.128472 0.962608 0 1.34616 0H11.9872C12.3707 0 12.691 0.128472 12.9479 0.385417C13.2049 0.642362 13.3333 0.962608 13.3333 1.34616V11.9872C13.3333 12.3707 13.2049 12.691 12.9479 12.9479C12.691 13.2049 12.3707 13.3333 11.9872 13.3333H1.34616ZM1.34616 12.5H11.9872C12.1154 12.5 12.2329 12.4466 12.3397 12.3397C12.4466 12.2329 12.5 12.1154 12.5 11.9872V1.34616C12.5 1.21795 12.4466 1.10043 12.3397 0.993594C12.2329 0.886757 12.1154 0.833338 11.9872 0.833338H1.34616C1.21795 0.833338 1.10043 0.886757 0.993594 0.993594C0.886757 1.10043 0.833338 1.21795 0.833338 1.34616V11.9872C0.833338 12.1154 0.886757 12.2329 0.993594 12.3397C1.10043 12.4466 1.21795 12.5 1.34616 12.5ZM0.833338 0.833338C0.833338 0.833338 0.833338 0.881415 0.833338 0.977568C0.833338 1.07372 0.833338 1.19658 0.833338 1.34616V11.9872C0.833338 12.1368 0.833338 12.2596 0.833338 12.3558C0.833338 12.4519 0.833338 12.5 0.833338 12.5C0.833338 12.5 0.833338 12.4519 0.833338 12.3558C0.833338 12.2596 0.833338 12.1368 0.833338 11.9872V1.34616C0.833338 1.19658 0.833338 1.07372 0.833338 0.977568C0.833338 0.881415 0.833338 0.833338 0.833338 0.833338Z" fill="#A8A29E"/>
</svg>
