<svg width="16" height="12" viewBox="0 0 16 12" fill="none" xmlns="http://www.w3.org/2000/svg">
<path d="M0 11.0257V9.65385C0 9.2671 0.10016 8.93457 0.300481 8.65626C0.500802 8.37794 0.770007 8.15552 1.1081 7.989C1.83091 7.64484 2.54861 7.37046 3.26122 7.16587C3.97383 6.96128 4.8312 6.85898 5.83334 6.85898C6.83547 6.85898 7.69285 6.96128 8.40545 7.16587C9.11806 7.37046 9.83577 7.64484 10.5586 7.989C10.8967 8.15552 11.1659 8.37794 11.3662 8.65626C11.5665 8.93457 11.6667 9.2671 11.6667 9.65385V11.0257H0ZM13.3333 11.0257V9.61539C13.3333 9.13249 13.2356 8.67665 13.0401 8.24789C12.8446 7.81913 12.5674 7.45125 12.2083 7.14423C12.6175 7.22757 13.0118 7.34322 13.391 7.49119C13.7703 7.63916 14.1453 7.80556 14.516 7.99039C14.8772 8.17201 15.1603 8.40444 15.3654 8.68767C15.5705 8.9709 15.6731 9.28014 15.6731 9.61539V11.0257H13.3333ZM5.83334 5.00001C5.14103 5.00001 4.55128 4.75642 4.0641 4.26924C3.57692 3.78206 3.33333 3.19231 3.33333 2.50001C3.33333 1.8077 3.57692 1.21795 4.0641 0.730771C4.55128 0.24359 5.14103 0 5.83334 0C6.52565 0 7.11539 0.24359 7.60257 0.730771C8.08975 1.21795 8.33334 1.8077 8.33334 2.50001C8.33334 3.19231 8.08975 3.78206 7.60257 4.26924C7.11539 4.75642 6.52565 5.00001 5.83334 5.00001ZM11.891 2.50001C11.891 3.19231 11.6463 3.78206 11.1567 4.26924C10.6671 4.75642 10.0785 5.00001 9.39104 5.00001C9.35578 5.00001 9.31091 4.996 9.25642 4.98799C9.20193 4.97998 9.15706 4.97116 9.1218 4.96155C9.40408 4.61579 9.62102 4.23221 9.77262 3.81082C9.92421 3.38943 10 2.95183 10 2.49802C10 2.04422 9.92068 1.61058 9.76203 1.19712C9.60337 0.783656 9.38997 0.397437 9.1218 0.0384623C9.16668 0.0224364 9.21155 0.0120197 9.25642 0.00721232C9.30129 0.00240411 9.34617 0 9.39104 0C10.0785 0 10.6671 0.24359 11.1567 0.730771C11.6463 1.21795 11.891 1.8077 11.891 2.50001ZM0.833338 10.1923H10.8333V9.65385C10.8333 9.45834 10.7845 9.2874 10.6867 9.14103C10.5889 8.99467 10.4135 8.85471 10.1603 8.72116C9.53847 8.3889 8.88302 8.13436 8.19392 7.95754C7.50481 7.78072 6.71795 7.69232 5.83334 7.69232C4.94872 7.69232 4.16186 7.78072 3.47276 7.95754C2.78366 8.13436 2.12821 8.3889 1.50641 8.72116C1.25321 8.85471 1.07773 8.99467 0.979973 9.14103C0.882217 9.2874 0.833338 9.45834 0.833338 9.65385V10.1923ZM5.83334 4.16667C6.29167 4.16667 6.68403 4.00348 7.01042 3.67709C7.33681 3.3507 7.50001 2.95834 7.50001 2.50001C7.50001 2.04167 7.33681 1.64931 7.01042 1.32292C6.68403 0.996533 6.29167 0.833338 5.83334 0.833338C5.375 0.833338 4.98264 0.996533 4.65626 1.32292C4.32987 1.64931 4.16667 2.04167 4.16667 2.50001C4.16667 2.95834 4.32987 3.3507 4.65626 3.67709C4.98264 4.00348 5.375 4.16667 5.83334 4.16667Z" fill="#A8A29E"/>
</svg>
