<svg width="15" height="15" viewBox="0 0 15 15" fill="none" xmlns="http://www.w3.org/2000/svg">
<path d="M5.73077 15L5.42949 12.5898C5.16346 12.5096 4.8758 12.3836 4.56651 12.2115C4.25722 12.0395 3.99413 11.8552 3.77725 11.6587L1.55449 12.6042L0 9.89584L1.92148 8.44712C1.8969 8.29648 1.8766 8.1413 1.86058 7.98157C1.84455 7.82185 1.83654 7.66667 1.83654 7.51603C1.83654 7.37607 1.84455 7.22891 1.86058 7.07453C1.8766 6.92015 1.8969 6.74627 1.92148 6.55289L0 5.10417L1.55449 2.42788L3.76122 3.35737C4.01016 3.15011 4.27939 2.96314 4.56891 2.79648C4.85844 2.62981 5.13996 2.50107 5.41346 2.41026L5.73077 0H8.83976L9.14104 2.42628C9.46048 2.53846 9.7428 2.6672 9.98799 2.8125C10.2332 2.9578 10.4856 3.13942 10.7452 3.35737L13.016 2.42788L14.5705 5.10417L12.5849 6.60097C12.6309 6.77298 12.6565 6.93083 12.6619 7.07453C12.6672 7.21822 12.6699 7.36005 12.6699 7.50001C12.6699 7.62928 12.6645 7.76576 12.6539 7.90946C12.6432 8.05316 12.6186 8.22703 12.5801 8.43109L14.5337 9.89584L12.9792 12.6042L10.7452 11.6426C10.4856 11.8606 10.2244 12.0476 9.96155 12.2035C9.69873 12.3595 9.42522 12.4829 9.14104 12.5737L8.83976 15H5.73077ZM6.45193 14.1667H8.08174L8.38943 11.9103C8.8093 11.7992 9.18724 11.6466 9.52324 11.4527C9.85925 11.2588 10.2014 10.9931 10.5497 10.6555L12.6282 11.5417L13.4567 10.125L11.633 8.75481C11.7025 8.51763 11.7484 8.29942 11.7708 8.10017C11.7933 7.90091 11.8045 7.70086 11.8045 7.50001C11.8045 7.28847 11.7933 7.08841 11.7708 6.89984C11.7484 6.71128 11.7025 6.50374 11.633 6.27725L13.4888 4.87501L12.6603 3.45834L10.5337 4.34936C10.2815 4.07265 9.95006 3.81331 9.53927 3.57132C9.12848 3.32933 8.73986 3.16881 8.3734 3.08975L8.1186 0.833338H6.45674L6.19712 3.07372C5.77725 3.16347 5.3913 3.30796 5.03927 3.50722C4.68724 3.70647 4.33708 3.98024 3.98879 4.32853L1.91026 3.45834L1.08174 4.87501L2.88943 6.22436C2.81999 6.41133 2.77137 6.61432 2.7436 6.83334C2.71582 7.05236 2.70193 7.27992 2.70193 7.51603C2.70193 7.72757 2.71582 7.93751 2.7436 8.14584C2.77137 8.35417 2.81464 8.55716 2.8734 8.75481L1.08174 10.125L1.91026 11.5417L3.97276 10.6667C4.29969 10.9968 4.63916 11.2615 4.99119 11.4607C5.34322 11.66 5.73986 11.8152 6.1811 11.9263L6.45193 14.1667ZM7.26283 9.58334C7.84403 9.58334 8.33655 9.38142 8.74039 8.97757C9.14424 8.57373 9.34617 8.0812 9.34617 7.50001C9.34617 6.91881 9.14424 6.42628 8.74039 6.02244C8.33655 5.61859 7.84403 5.41667 7.26283 5.41667C6.67842 5.41667 6.1851 5.61859 5.78286 6.02244C5.38061 6.42628 5.17949 6.91881 5.17949 7.50001C5.17949 8.0812 5.38061 8.57373 5.78286 8.97757C6.1851 9.38142 6.67842 9.58334 7.26283 9.58334Z" fill="#A8A29E"/>
</svg>
