<svg width="12" height="16" viewBox="0 0 12 16" fill="none" xmlns="http://www.w3.org/2000/svg">
<path d="M0 13.141V12.3077H1.34616V5.70513C1.34616 4.61646 1.69071 3.65893 2.37981 2.83254C3.06891 2.00615 3.94231 1.49146 5 1.28846V0.833336C5 0.601853 5.08084 0.405093 5.24251 0.243056C5.40418 0.0810187 5.60049 0 5.83145 0C6.06241 0 6.25936 0.0810187 6.42228 0.243056C6.58521 0.405093 6.66667 0.601853 6.66667 0.833336V1.28846C7.72437 1.49146 8.59776 2.00615 9.28687 2.83254C9.97597 3.65893 10.3205 4.61646 10.3205 5.70513V12.3077H11.6667V13.141H0ZM5.8305 15.3205C5.45953 15.3205 5.1429 15.1887 4.88061 14.9251C4.61833 14.6615 4.48718 14.3446 4.48718 13.9744H7.17949C7.17949 14.3472 7.04741 14.6648 6.78323 14.9271C6.51905 15.1894 6.20148 15.3205 5.8305 15.3205ZM2.17949 12.3077H9.48718V5.70513C9.48718 4.69231 9.13141 3.83013 8.41988 3.1186C7.70834 2.40706 6.84616 2.05129 5.83334 2.05129C4.82052 2.05129 3.95834 2.40706 3.2468 3.1186C2.53526 3.83013 2.17949 4.69231 2.17949 5.70513V12.3077Z" fill="#57534E"/>
</svg>
