<svg width="1395" height="475" viewBox="0 0 1395 475" fill="none" xmlns="http://www.w3.org/2000/svg">
<path d="M252.92 313.16C240.8 313.16 230.12 310.7 220.88 305.78C211.76 300.74 204.62 293.72 199.46 284.72C194.3 275.72 191.72 265.34 191.72 253.58C191.72 243.74 193.34 234.98 196.58 227.3C199.94 219.5 204.56 212.9 210.44 207.5C216.32 201.98 223.1 197.78 230.78 194.9C238.58 191.9 246.92 190.4 255.8 190.4C262.28 190.4 268.7 191.3 275.06 193.1C281.42 194.78 287.42 197.3 293.06 200.66L284.24 217.76C278.96 213.44 273.68 210.2 268.4 208.04C263.12 205.88 257.54 204.8 251.66 204.8C243.62 204.8 236.66 206.66 230.78 210.38C224.9 214.1 220.4 219.38 217.28 226.22C214.16 232.94 212.6 240.98 212.6 250.34C212.6 260.18 214.46 268.76 218.18 276.08C222.02 283.4 227.12 289.1 233.48 293.18C239.96 297.14 247.04 299.12 254.72 299.12C261.08 299.12 266.96 297.92 272.36 295.52C277.76 293.12 282.44 289.88 286.4 285.8L294.5 300.92C288.38 305 281.84 308.06 274.88 310.1C267.92 312.14 260.6 313.16 252.92 313.16ZM317.422 311V192.56H336.682V311H317.422ZM323.542 311V295.88H395.002V311H323.542ZM417.643 311V192.56H437.623V311H417.643ZM587.066 311L583.286 201.74L592.286 197.6L544.586 301.46H533.246L488.606 205.7L488.786 192.56H502.286L544.226 281.48H538.826L579.326 192.56H599.486L606.506 311H587.066ZM472.406 311L480.506 192.56H494.366L490.046 311H472.406ZM717.38 311L678.32 202.82H685.88L647.18 311H627.74L675.8 192.56H692.36L738.26 311H717.38ZM648.98 274.82L654.56 259.7H706.4L714.5 274.82H648.98ZM776.513 311V192.56H796.313V311H776.513ZM735.653 207.68V192.56H837.533V207.68H735.653ZM860.41 311V192.56H894.79C903.43 192.56 910.81 193.76 916.93 196.16C923.17 198.56 928.03 202.1 931.51 206.78C934.99 211.46 936.73 217.22 936.73 224.06C936.73 229.46 935.65 234.5 933.49 239.18C931.33 243.86 928.27 247.94 924.31 251.42C920.35 254.9 915.67 257.6 910.27 259.52C904.87 261.44 898.99 262.4 892.63 262.4H867.61V249.26H894.97C901.69 249.26 907.15 247.22 911.35 243.14C915.55 239.06 917.65 233.78 917.65 227.3C917.65 220.7 915.55 215.6 911.35 212C907.15 208.4 901.09 206.6 893.17 206.6H879.13V311H860.41ZM927.01 311L893.89 257.9L909.19 252.5L951.31 311H927.01ZM1051.54 311L1012.48 202.82H1020.04L981.341 311H961.901L1009.96 192.56H1026.52L1072.42 311H1051.54ZM983.141 274.82L988.721 259.7H1040.56L1048.66 274.82H983.141ZM1096.13 311V192.56H1134.47C1144.07 192.56 1152.95 193.82 1161.11 196.34C1169.27 198.86 1176.29 202.58 1182.17 207.5C1188.17 212.3 1192.79 218.24 1196.03 225.32C1199.27 232.28 1200.89 240.2 1200.89 249.08C1200.89 256.4 1199.63 263.78 1197.11 271.22C1194.59 278.54 1190.63 285.2 1185.23 291.2C1179.83 297.2 1172.75 302 1163.99 305.6C1155.35 309.2 1144.79 311 1132.31 311H1096.13ZM1115.39 297.14H1134.11C1142.99 297.14 1150.43 295.94 1156.43 293.54C1162.43 291.02 1167.17 287.66 1170.65 283.46C1174.25 279.14 1176.77 274.34 1178.21 269.06C1179.77 263.78 1180.55 258.2 1180.55 252.32C1180.55 244.16 1178.87 236.66 1175.51 229.82C1172.27 222.86 1167.05 217.28 1159.85 213.08C1152.65 208.88 1143.17 206.78 1131.41 206.78H1115.39V297.14ZM1305.35 311H1228.67V192.56H1299.41V207.86H1247.39V295.7H1305.35V311ZM1234.79 258.44V243.5H1292.57V258.44H1234.79Z" fill="black"/>
<path d="M185.878 276C187.256 280.514 189.096 284.781 191.4 288.8C197.134 298.8 205.067 306.6 215.2 312.2C215.715 312.474 216.235 312.74 216.758 313H168.235L142.327 276H185.878Z" fill="#3D00FD"/>
<path d="M185.449 233C183.684 239.479 182.8 246.545 182.8 254.2C182.8 259.743 183.318 265.009 184.35 270H138.126L112.219 233H185.449Z" fill="black"/>
<path d="M221.409 191C214.819 194.041 208.882 198.041 203.6 203C197.066 209 191.933 216.333 188.2 225C187.785 225.984 187.396 226.984 187.028 228H108.718L82.8096 191H221.409Z" fill="#FF002F"/>
</svg>
