<svg width="18" height="13" viewBox="0 0 18 13" fill="none" xmlns="http://www.w3.org/2000/svg">
<path d="M3.74808 12.548C3.09763 12.548 2.54538 12.3205 2.09132 11.8656C1.63727 11.4107 1.41024 10.8582 1.41024 10.2083H0V1.5064C0 1.08546 0.145832 0.72916 0.437496 0.437496C0.72916 0.145832 1.08546 0 1.5064 0H12.8525V3.17307H15.064L17.7564 6.77885V10.2083H16.25C16.25 10.8582 16.0223 11.4107 15.567 11.8656C15.1117 12.3205 14.5588 12.548 13.9084 12.548C13.2579 12.548 12.7056 12.3205 12.2516 11.8656C11.7975 11.4107 11.5705 10.8582 11.5705 10.2083H6.0897C6.0897 10.86 5.86204 11.4129 5.40673 11.8669C4.95142 12.321 4.39853 12.548 3.74808 12.548ZM3.74997 11.298C4.05553 11.298 4.31355 11.1928 4.52402 10.9823C4.7345 10.7719 4.83973 10.5138 4.83973 10.2083C4.83973 9.90273 4.7345 9.64471 4.52402 9.43424C4.31355 9.22376 4.05553 9.11853 3.74997 9.11853C3.44441 9.11853 3.18639 9.22376 2.97592 9.43424C2.76544 9.64471 2.66021 9.90273 2.66021 10.2083C2.66021 10.5138 2.76544 10.7719 2.97592 10.9823C3.18639 11.1928 3.44441 11.298 3.74997 11.298ZM1.24997 8.95832H1.85253C2.02988 8.64955 2.28602 8.39073 2.62096 8.18186C2.95589 7.97299 3.33223 7.86856 3.74997 7.86856C4.15702 7.86856 4.53069 7.97166 4.87097 8.17786C5.21125 8.38406 5.47006 8.64421 5.64741 8.95832H11.6026V1.24997H1.5064C1.44229 1.24997 1.38353 1.27668 1.3301 1.3301C1.27668 1.38353 1.24997 1.44229 1.24997 1.5064V8.95832ZM13.9102 11.298C14.2158 11.298 14.4738 11.1928 14.6843 10.9823C14.8948 10.7719 15 10.5138 15 10.2083C15 9.90273 14.8948 9.64471 14.6843 9.43424C14.4738 9.22376 14.2158 9.11853 13.9102 9.11853C13.6047 9.11853 13.3467 9.22376 13.1362 9.43424C12.9257 9.64471 12.8205 9.90273 12.8205 10.2083C12.8205 10.5138 12.9257 10.7719 13.1362 10.9823C13.3467 11.1928 13.6047 11.298 13.9102 11.298ZM12.8525 7.29165H16.5865L14.423 4.42303H12.8525V7.29165Z" fill="#C8A96E"/>
</svg>
